<svg id="Layer_1" data-name="Layer 1" xmlns="http://www.w3.org/2000/svg" viewBox="0 0 3000 3000"><defs><style>.cls-1{fill:#fbe600;}.cls-2{fill:#fff;}</style></defs><title>goglobalArtboard 1</title><path class="cls-1" d="M422,1712.57q-39.72,0-73.37-12.83a175.31,175.31,0,0,1-58.35-36.08,166.79,166.79,0,0,1-38.74-55.45q-14.06-32.2-14-70.94v-1a175.35,175.35,0,0,1,51.56-125.18q24.07-24,57.69-37.53T419.6,1360q45,0,77.72,13.07a213,213,0,0,1,59.81,36.32l-55.21,66.35A151.79,151.79,0,0,0,464.39,1452q-19.12-8.24-44.31-8.24a80.5,80.5,0,0,0-34.14,7.27,85.81,85.81,0,0,0-27.36,19.85,95.33,95.33,0,0,0-18.4,29.54,96.93,96.93,0,0,0-6.78,36.32v1a102.88,102.88,0,0,0,6.8,37.77,85.06,85.06,0,0,0,19.19,29.78,89.86,89.86,0,0,0,29.16,19.37,95.05,95.05,0,0,0,37.16,7q33,0,54.42-14v-41.16H413.3v-68.76H569.23v152.54q-27.12,22.27-63.92,37.29T422,1712.57Z"/><path class="cls-1" d="M771.4,1712.57q-39.23,0-72.64-13.8a178.8,178.8,0,0,1-57.63-37.53,173.43,173.43,0,0,1-38-55.69,170.41,170.41,0,0,1-13.8-68.28v-1a172.74,172.74,0,0,1,52.3-124.7,182.42,182.42,0,0,1,58.11-37.77q33.42-13.8,72.64-13.8t72.64,13.8a178.86,178.86,0,0,1,57.62,37.53,173.35,173.35,0,0,1,38,55.69,170.41,170.41,0,0,1,13.8,68.28v1A172.74,172.74,0,0,1,902.15,1661,182.38,182.38,0,0,1,844,1698.77Q810.62,1712.57,771.4,1712.57Zm.73-84.75a85,85,0,0,0,35.45-7.26A81.61,81.61,0,0,0,834.77,1601a91.13,91.13,0,0,0,17.48-28.82,96.45,96.45,0,0,0,6.32-34.86v-1a96.55,96.55,0,0,0-6.32-34.87,89.82,89.82,0,0,0-18-29.06,88.56,88.56,0,0,0-27.68-20.09,82.65,82.65,0,0,0-35.45-7.51q-19.44,0-35.21,7.27a84.44,84.44,0,0,0-44.68,48.42,99.94,99.94,0,0,0-6.07,34.87v1a96.66,96.66,0,0,0,6.31,34.86,91.65,91.65,0,0,0,17.73,29.06,85.26,85.26,0,0,0,27.44,20.1A82.41,82.41,0,0,0,772.13,1627.82Z"/><path class="cls-2" d="M1081,1704.08q-38.76,0-71.6-12.52a171,171,0,0,1-57-35.21,162.54,162.54,0,0,1-37.8-54.11q-13.73-31.42-13.71-69.24v-.94a171.14,171.14,0,0,1,50.32-122.17q23.5-23.4,56.3-36.63t71.08-13.23q44,0,75.85,12.76a207.63,207.63,0,0,1,58.37,35.44L1159,1473a148.23,148.23,0,0,0-36.63-23.16q-18.67-8-43.24-8a78.46,78.46,0,0,0-33.32,7.09,83.58,83.58,0,0,0-26.7,19.37,93.1,93.1,0,0,0-18,28.83,94.61,94.61,0,0,0-6.61,35.45v.94a100.48,100.48,0,0,0,6.63,36.87,83.13,83.13,0,0,0,18.73,29.06,88,88,0,0,0,28.45,18.91,93,93,0,0,0,36.28,6.85q32.24,0,53.1-13.71v-40.17h-65.22v-67.11h152.18V1653q-26.48,21.75-62.38,36.39T1081,1704.08Z"/><path class="cls-2" d="M1252.55,1373.26h91.68v250.48h160.22v80.34h-251.9Z"/><path class="cls-2" d="M1873.17,1373.26h169.37q31.14,0,53.32,7.56t36.8,22.22a73.22,73.22,0,0,1,15.57,23.15q5.66,13.24,5.66,30.25v.94q0,28.84-14.34,46.55a93.09,93.09,0,0,1-36.43,27.18q30.33,9.93,48.12,28.59t17.78,52.23v.94q0,43-32.85,67.11t-92.39,24.1H1873.17Zm147,131.86q21.25,0,32.37-7.09t11.11-21.74v-1q0-13.69-10.4-21T2022,1447h-59.55v58.13Zm13.23,125.24q21.27,0,32.61-7.8t11.34-22.45v-.94q0-13.71-10.87-21.74t-34-8h-69.94v61Z"/><path class="cls-2" d="M2298.92,1370.9h88.38l140.83,333.18h-98.3l-24.1-59.07h-127.6l-23.63,59.07h-96.42Zm80.34,203.22-36.86-94-37.34,94Z"/><path class="cls-2" d="M2545.62,1373.26h91.68v250.48h160.22v80.34h-251.9Z"/><path class="cls-2" d="M1838.49,1464.47a169.27,169.27,0,0,0-37.09-54.35,174.89,174.89,0,0,0-56.24-36.62q-32.62-13.47-70.9-13.47t-70.89,13.47a178.07,178.07,0,0,0-56.71,36.86,168.62,168.62,0,0,0-51,121.7v.94a166.3,166.3,0,0,0,13.47,66.64,169.14,169.14,0,0,0,37.1,54.35,174.53,174.53,0,0,0,56.24,36.63q32.61,13.45,70.89,13.46t70.89-13.46a178.1,178.1,0,0,0,56.71-36.87,168.62,168.62,0,0,0,51-121.69v-1A166.3,166.3,0,0,0,1838.49,1464.47Zm-196.74-81.08c-11,8.78-20.41,21.79-28,37.34-1.76,3.63-3.44,7.47-5,11.4h-49.55A151.87,151.87,0,0,1,1641.75,1383.39ZM1546,1449.51h56.75a263.15,263.15,0,0,0-9.1,43.44h-66.93A151.23,151.23,0,0,1,1546,1449.51Zm-24.31,82.55a154.14,154.14,0,0,1,1.63-21.73h68.7c-.48,7.14-.81,14.32-.81,21.73s.33,14.61.81,21.72h-68.7A154.11,154.11,0,0,1,1521.73,1532.06ZM1546,1614.6a151.11,151.11,0,0,1-19.28-43.44h66.93a263.15,263.15,0,0,0,9.1,43.44Zm13.17,17.38h49.55c1.6,4,3.24,7.73,5,11.4,7.56,15.55,17,28.56,28,37.34A151.87,151.87,0,0,1,1559.21,1632Zm105.89,42.09c-12.76-4.09-25.43-17.13-35.7-38.29-.59-1.21-1.07-2.55-1.63-3.8h37.33Zm0-59.47h-44.26a245.07,245.07,0,0,1-9.5-43.44h53.76Zm0-60.82h-55.53c-.51-7.08-1-14.35-1-21.72s.44-14.6,1-21.73h55.53Zm0-60.83h-53.76a243.72,243.72,0,0,1,9.64-43.44h44.12Zm0-60.82h-37.33c.56-1.24,1-2.61,1.63-3.8,10.24-21.09,22.84-34,35.57-38.15h.13Zm136.45,17.38a151.48,151.48,0,0,1,19.27,43.44h-66.93a264.19,264.19,0,0,0-9.09-43.44Zm-13.17-17.38h-49.56c-1.58-3.93-3.25-7.77-5-11.4-7.55-15.55-17-28.56-28-37.34A151.9,151.9,0,0,1,1788.38,1432.13Zm-105.9-42c12.77,4.09,25.43,17,35.71,38.15.58,1.19,1.07,2.56,1.63,3.8h-37.34Zm0,59.33h44.12a243.72,243.72,0,0,1,9.64,43.44h-53.76Zm0,60.82H1738c.51,7.13,1,14.3,1,21.73s-.44,14.64-1,21.72h-55.53Zm0,60.83h53.76a244.19,244.19,0,0,1-9.5,43.44h-44.26Zm0,102.91V1632h37.34c-.57,1.25-1,2.59-1.63,3.8C1707.91,1656.94,1695.25,1670,1682.48,1674.07Zm23.35,6.65c11-8.78,20.42-21.79,28-37.34,1.78-3.67,3.43-7.42,5-11.4h49.56A151.9,151.9,0,0,1,1705.83,1680.72Zm95.72-66.12H1744.8a264.19,264.19,0,0,0,9.09-43.44h66.94A151.66,151.66,0,0,1,1801.55,1614.6Zm22.67-60.82h-68.7c.48-7.11.82-14.35.82-21.72s-.34-14.59-.82-21.73h68.7a145.59,145.59,0,0,1,0,43.45Z"/></svg>