<svg id="Layer_1" data-name="Layer 1" xmlns="http://www.w3.org/2000/svg" viewBox="0 0 618.59 510.05"><defs><style>.cls-1{fill:#fff;}</style></defs><title>Artboard 1</title><path class="cls-1" d="M178.54,234.4c-1,38.59-11.8,65.81-41.65,77.3-24.87,9.56-43.85-.93-53-24.65-4.49-11.68-6.12-26.2-7-42.32-21.28,2.92-39-5.43-46.5-24.94-5-13-5-29-.57-42.61a4.09,4.09,0,0,1,2.55-2.52,4.2,4.2,0,0,1,5.56,2.47,3.84,3.84,0,0,1,.07,3.05c-3.94,10.3-3.76,25.61.28,36.13,6.55,17,21.33,22.33,38.53,19.66-1.06-34.73,6.38-81.08,33.77-90.95,15.83-5.65,28.21,2.54,34,17.66,12.37,32.14-18,65.12-50.52,77.64A72.47,72.47,0,0,1,85.42,243c1,15.85,2.27,29.88,6.53,41,7.88,20.48,23.1,26.92,41.85,19.71,26.4-10.16,35.36-34.25,36.1-69.45a4.32,4.32,0,0,1,4.28-4.29A4.56,4.56,0,0,1,178.54,234.4Zm-88.15-1.9c28.32-10.89,56.61-39.56,46.16-66.73-4.2-10.91-12.38-16.76-22.9-12.72-22.58,8.69-29,52.46-28.3,81.17A43.62,43.62,0,0,0,90.39,232.5Z"/><path class="cls-1" d="M119.46,318.19a36.75,36.75,0,0,1-16.28-3.64C93.6,309.87,86,300.73,81.12,288.12c-4.57-11.87-6.19-26.67-7.05-40.06-21.91,1.9-39.15-8.11-46.5-27.2-5.15-13.4-5.38-30.08-.62-44.62a7,7,0,0,1,4.32-4.38,7.33,7.33,0,0,1,5.41,0,7.22,7.22,0,0,1,4,4.18,6.78,6.78,0,0,1,0,5.25c-3.61,9.51-3.49,24.08.3,33.93,6.49,16.86,20.85,19.37,32.67,18.11-.21-12.32.51-33.41,6.4-53,6.14-20.47,16-33.29,29.41-38.11,16.48-5.89,31,1.55,37.84,19.4,6,15.63,2.89,33-8.8,49-10.2,14-26,25.79-43.44,32.49-2.31.88-4.31,1.51-6.56,2.13,1,14.57,2.27,27.47,6.18,37.63,7.14,18.57,20.27,24.78,38,18C155.88,292,166.1,272,166.9,234.19A7.06,7.06,0,0,1,169,229.1a7.24,7.24,0,0,1,5.21-2.18h.14a7.54,7.54,0,0,1,7.18,7.41v.13c-1.1,43.59-14.94,69-43.57,80A51.82,51.82,0,0,1,119.46,318.19ZM79.68,241.32l.18,3.24c.79,13.71,2.23,29.36,6.86,41.41,4.29,11.16,10.9,19.18,19.1,23.19,8.56,4.18,18.66,4.1,30-.26,26.42-10.17,38.67-33.14,39.73-74.5a1.56,1.56,0,0,0-1.46-1.48,1.37,1.37,0,0,0-.82.41,1.15,1.15,0,0,0-.36.82v.12c-.84,40.13-12.57,62.4-38,72.19-20.75,8-37.42.17-45.73-21.43-4.42-11.52-5.66-25.77-6.72-41.85l-.17-2.49,2.42-.62a68.84,68.84,0,0,0,8.3-2.55c16.36-6.3,31.22-17.39,40.75-30.43,13.39-18.31,11.77-33.67,8.05-43.33-5.65-14.7-17-20.65-30.22-15.92-25.15,9.07-32.83,53.1-31.77,88l.08,2.65-2.62.41a57.16,57.16,0,0,1-8.65.69c-15.93,0-27.54-7.7-33.14-22.24C31.12,206.11,31,190,35.18,179.11l.06-.15a1.19,1.19,0,0,0-.13-.75,1.23,1.23,0,0,0-.68-.77,1.41,1.41,0,0,0-1,0c-.24.09-.66.3-.76.63-4.36,13.29-4.16,28.47.51,40.62,6.73,17.49,22.51,25.89,43.29,23ZM82.44,238l-.09-3.73c-.67-26.64,4.94-74.32,30.22-84.05,11.4-4.38,21.67,1.15,26.78,14.44s1.94,28.4-9,42.39c-9.25,11.86-23.79,22.41-38.9,28.22h0l-1.08-2.8,1.06,2.81a46.68,46.68,0,0,1-5.38,1.82Zm6.86-8.32,1.09,2.79-1.07-2.8c14.13-5.44,27.71-15.27,36.32-26.31,6.78-8.68,13.68-22.06,8.11-36.54-1.85-4.8-7.39-15.47-19-11S96.91,175.2,93.65,186.93c-3.47,12.49-5.39,28-5.36,43.16Z"/><path class="cls-1" d="M248.75,205.63a6.09,6.09,0,0,1,.28,1.87c-1.47,33.3-6.54,48.65-19.56,53.65l-.19.07c-9,3.46-16.16-1.47-19.76-10.84a48.13,48.13,0,0,1-2.87-13.17c-.83-6.72-2.2-35.4-2.09-40.27-16.38.81-18.78.85-23.8.37.12,2.59-.19,5.78-2.62,45.15a4.14,4.14,0,0,1-2.56,3.62,6,6,0,0,1-2.06.35,4.59,4.59,0,0,1-3.7-2.75,6,6,0,0,1-.28-1.87l2.5-39.18.09-6.62c-7.28-1.81-13.21-5.24-15.94-12.32-3-7.84.77-14.57,6.89-16.92,6.89-2.65,13,.7,15.95,8.36,1.18,3.06,1.08,5.07,1.65,13.42,6.39.62,13.71.22,20,0,3-.27,5.76-.46,8.15-.5a4.61,4.61,0,0,1,4.43,4.66c-.05,7.27,1.29,38.17,2,43.39a49.13,49.13,0,0,0,2.32,11.19c1.84,4.78,4.62,7.44,8.83,5.82,9.38-3.6,12.53-17.11,13.94-46a4.42,4.42,0,0,1,2.68-3.88,6,6,0,0,1,1.87-.28A4.4,4.4,0,0,1,248.75,205.63ZM166.17,174.8a3.56,3.56,0,0,0-2.24,5,12.71,12.71,0,0,0,8,7c-.07-3.05-.25-6.93-1-8.84C169.67,174.77,167.7,174.21,166.17,174.8Z"/><path class="cls-1" d="M223.69,265.33a15.31,15.31,0,0,1-7.83-2.13c-3.9-2.29-7.07-6.35-9.14-11.74a50.65,50.65,0,0,1-3.06-14c-.73-6-1.84-28.32-2.07-37.4-10.51.51-14.46.63-17.87.45-.12,2.59-.41,7.19-1,16.81-.39,6.13-.9,14.3-1.58,25.29v.11a7.17,7.17,0,0,1-4.47,6.13,8.82,8.82,0,0,1-3,.55h-.29l-.3,0a7.63,7.63,0,0,1-6-4.64,8.58,8.58,0,0,1-.47-2.81v-.17l2.51-39.26,0-4.24c-8-2.49-13.17-6.92-15.71-13.51a16.35,16.35,0,0,1,.08-12.83,15.29,15.29,0,0,1,8.53-8c8.32-3.2,16.29.85,19.83,10.08,1.13,2.91,1.26,5,1.58,10.22,0,.47.06,1,.1,1.48,4.77.26,10,.07,14.69-.11l2.28-.09c3.42-.3,6.05-.46,8.29-.5a7.58,7.58,0,0,1,7.48,7.53v.16c-.05,7,1.27,37.83,1.95,43l0,.13a46.56,46.56,0,0,0,2.16,10.45,8.53,8.53,0,0,0,2.47,3.89,2.27,2.27,0,0,0,2.46.13c7.35-2.82,10.61-14.57,12-43.33v-.15a7.37,7.37,0,0,1,4.59-6.39,8.58,8.58,0,0,1,2.81-.48h.21l.22,0a7.36,7.36,0,0,1,6.39,4.59h0a8.62,8.62,0,0,1,.48,2.81v.27c-1.33,30.18-5.39,50.12-21.48,56.31l-.19.07A18.43,18.43,0,0,1,223.69,265.33Zm-16.07-71.55-.06,3.22c-.1,4.5,1.25,33.23,2.06,39.84a45.53,45.53,0,0,0,2.7,12.46c1.58,4.11,3.85,7.13,6.58,8.72s5.85,1.73,9.31.4l.19-.07c9.38-3.61,16-13.64,17.63-50.84a4.51,4.51,0,0,0-.08-.8,1.51,1.51,0,0,0-1.2-.75,3.94,3.94,0,0,0-.68.08c-.57.22-.72,1-.76,1.31-1.37,28.07-4.32,44.13-15.85,48.56a8.16,8.16,0,0,1-8.15-.89,14.19,14.19,0,0,1-4.56-6.66l-.06-.16a53.74,53.74,0,0,1-2.45-11.77c-.72-5.6-2-36.15-2-43.64-.07-1-.72-1.77-1.37-1.74-2.08,0-4.68.2-7.94.49h-.16l-2.35.08a137.54,137.54,0,0,1-18-.1l-2.53-.24-.17-2.53c-.11-1.58-.19-2.94-.27-4.12-.3-4.9-.4-6.38-1.19-8.44-2.36-6.15-6.88-8.63-12.07-6.63a9.3,9.3,0,0,0-5.22,4.83,10.56,10.56,0,0,0,.05,8.22c2,5.31,6.45,8.64,13.87,10.48l2.3.57-.12,9.15-2.49,39a3.41,3.41,0,0,0,.08.77,1.54,1.54,0,0,0,1.1.81,2.35,2.35,0,0,0,.77-.14,1.19,1.19,0,0,0,.65-1.07c.67-11,1.19-19.12,1.57-25.23,1-15.46,1.12-17.83,1-19.54L177.6,194l3.45.33c4.81.46,7,.43,23.36-.38ZM175,191l-4-1.27a15.64,15.64,0,0,1-9.87-8.82,6.53,6.53,0,0,1,4-8.91h0c2.92-1.12,6.72,0,8.64,4.95.89,2.32,1.09,6.28,1.18,9.85Zm-7.79-13.39c-.7.28-.78.38-.49,1.15a7.85,7.85,0,0,0,1.87,2.73,11.5,11.5,0,0,0-.47-2.39A3.61,3.61,0,0,0,167.22,177.61Z"/><path class="cls-1" d="M309.49,182.5a4.82,4.82,0,0,1,.2,1.67c-1.84,32.34-11.52,50.56-30.85,58-15.88,6.11-29.49-.73-35.14-16.57-8.27-24.93-3.68-72.38,18.89-81.06,9.57-3.68,18.18-1.28,21.71,7.9,7.8,20.28-16,43.49-35.25,56.83a60,60,0,0,0,2.76,13.43c3.81,11.06,12.51,15.4,24.13,11.36,15.84-5.65,23.82-21.45,25-50.26a4.64,4.64,0,0,1,4.55-4.16A4.71,4.71,0,0,1,309.49,182.5Zm-33.22-27c-2-5.17-6.38-4.58-10.59-3-13.2,5.08-16.64,29.25-17.1,46.33C262.55,187.81,281.71,169.68,276.27,155.52Z"/><path class="cls-1" d="M267.66,247.38A26.42,26.42,0,0,1,256.54,245c-7.12-3.27-12.54-9.63-15.67-18.4-4.4-13.27-5.25-31.7-2.24-48.17,3.53-19.35,11.66-32.39,22.89-36.7,5.47-2.11,10.71-2.43,15.16-.92,4.79,1.63,8.4,5.28,10.42,10.54,9.51,24.73-22.49,50.52-34.86,59.34a54.85,54.85,0,0,0,2.41,11.06c1.62,4.68,4.15,7.9,7.52,9.54S270,233,275,231.22c9.14-3.26,21.5-11.75,23-47.55v-.17a7.63,7.63,0,0,1,7.48-6.87h.17l.17,0a7.69,7.69,0,0,1,6.47,4.78h0a6.39,6.39,0,0,1,.4,2.3l0,.47v.16c-1.91,33.49-12.32,52.75-32.77,60.61A34,34,0,0,1,267.66,247.38Zm3.1-101.51a19.88,19.88,0,0,0-7.09,1.46c-9.06,3.48-16,15.21-19.14,32.18-2.8,15.3-2,33,2,45.14,2.56,7.14,6.89,12.32,12.5,14.9,5.44,2.5,11.92,2.43,18.73-.19,18.2-7,27.12-24,28.92-55.21,0-.1,0-.2,0-.29s0-.22,0-.32a1.74,1.74,0,0,0-1.26-.9A1.66,1.66,0,0,0,304,184c-1.29,29.94-9.87,46.74-27,52.86-6.5,2.26-12.51,2.19-17.4-.19s-8.44-6.83-10.58-13a63.16,63.16,0,0,1-2.9-14.1l-.18-1.77,1.46-1c20.86-14.45,40.79-36,34.15-53.28-1.38-3.6-3.66-6-6.75-7A12.54,12.54,0,0,0,270.76,145.87Zm-25.35,59.37.17-6.43c.42-15.74,3.45-43.06,19-49.05,9.11-3.5,12.89.61,14.46,4.68h0c4.71,12.25-4.92,28-28.62,46.8Zm25.32-50.83a11.73,11.73,0,0,0-4,1c-8,3.08-13.42,16.69-14.85,36.92,17.17-14.68,24.8-27.24,21.56-35.68h0C273.06,155.55,272.62,154.41,270.73,154.41Z"/><path class="cls-1" d="M386.51,152.65a6,6,0,0,1,.28,1.87l0,.65c-1.09,18.87-2.37,46.37-19.59,53-9.18,3.53-16.35-1.4-20-10.78-3.54,13.66-9.51,22.11-17.74,25.27-10.71,4.13-19.22-3.14-23.64-14.62-9.64-25.07-7.53-77.27,15.43-86.1,8-3.09,15.22-2.12,21.31,3.44-.1-3.69-.06-7-.06-9.86a4.27,4.27,0,0,1,2.87-4,4.17,4.17,0,0,1,5.7,4l.29,29.32c.55,22,.63,41,3.87,49.46,2.21,5.74,4.82,7.38,8.83,5.83,11.87-4.56,13.1-28.76,14-45.34l0-.65a4.43,4.43,0,0,1,2.68-3.89,6,6,0,0,1,1.87-.28A4.43,4.43,0,0,1,386.51,152.65Zm-44.36.59-.11-14c-3.77-8.65-10.73-11.91-17.62-9.26-17.46,7.16-17.9,54.55-11,73.64,3.23,8.41,7.09,13.3,12.83,11.09C341.76,208.74,342,175.7,342.15,153.24Z"/><path class="cls-1" d="M323.55,226.84c-8.56,0-16.05-6.31-20.45-17.73-5.07-13.19-6.91-33-4.69-50.59,2.67-21,10.42-35,21.84-39.38,7-2.7,13.59-2.53,19.32.44v-4.06a7.23,7.23,0,0,1,4.79-6.76,7.07,7.07,0,0,1,6.71.8,7.26,7.26,0,0,1,3.07,6l.29,29.27c.06,2.22.11,4.45.16,6.64.43,18.63.79,34.71,3.51,41.78,1.08,2.79,2,3.83,2.58,4.21.25.16.78.51,2.38-.11,10-3.85,11.28-28.07,12-42.55l0-.72,0-.21a7.38,7.38,0,0,1,4.59-6.4,8.58,8.58,0,0,1,2.81-.47h.21l.22,0a7.35,7.35,0,0,1,6.39,4.58h0a8.62,8.62,0,0,1,.48,2.81l0,.8-.07,1.16c-1.15,20-2.72,47.42-21.45,54.63-5.25,2-10.31,1.76-14.65-.75a19,19,0,0,1-5.63-5.15c-3.92,10.6-9.76,17.45-17.41,20.39A19.59,19.59,0,0,1,323.55,226.84ZM329.9,123.2a20.77,20.77,0,0,0-7.5,1.54c-9.12,3.51-15.7,16.1-18,34.54-2.11,16.63-.41,35.35,4.33,47.68,1.62,4.19,7.8,17.51,19.76,12.9,7.3-2.8,12.65-10.61,15.91-23.22l2.35-9.06,3.36,8.74c1.58,4.11,3.86,7.13,6.59,8.7s5.94,1.71,9.49.35c15.11-5.82,16.55-31,17.61-49.38l.05-.84,0-.49a6.5,6.5,0,0,0-.09-.94,1.5,1.5,0,0,0-1.2-.74,5.74,5.74,0,0,0-.68.07,1.5,1.5,0,0,0-.74,1.2l0,.54v.28c-.94,18-2.23,42.61-15.88,47.86-3,1.14-5.59,1-7.81-.47-2-1.29-3.54-3.54-4.9-7.08-3.09-8-3.45-23.81-3.91-43.79q-.08-3.28-.16-6.68l-.29-29.42v0a1.26,1.26,0,0,0-.54-1,1.08,1.08,0,0,0-1.08-.09,1.33,1.33,0,0,0-.95,1.13v2c0,2.33,0,5,.07,7.8l.2,7.06-5.22-4.76A15.47,15.47,0,0,0,329.9,123.2Zm-6.36,95.06c-7.69,0-11.53-10-12.91-13.58-3.74-10.32-5.27-27.44-3.83-42.65,1-10.91,4.54-29.94,16.48-34.83,8.76-3.37,17.18.89,21.51,10.83l.24.56.12,14.67c-.15,24.28-.37,57.53-17.81,64.24A10.43,10.43,0,0,1,323.54,218.26Zm5.56-86.19a10.13,10.13,0,0,0-3.61.7c-6.52,2.68-11.18,13.56-12.72,29.82-1.34,14.19.09,30.64,3.48,40,4.27,11.11,7.54,9.85,8.93,9.31,13.62-5.24,13.84-38.67,14-58.66L339,139.88C336.68,134.81,333.12,132.07,329.1,132.07Z"/><path class="cls-1" d="M426.31,137.34a6.09,6.09,0,0,1,.28,1.87c-1.9,28.19-6.36,48.57-24,55.34-9.18,3.54-16.81-1.44-20.34-10.62-2.72-7.08-4.34-25.57-4.25-43.61l-.77-31.11-12,4.63a4.21,4.21,0,0,1-5.57-2.47,4.32,4.32,0,0,1,2.48-5.56l14.73-5.67c.09-.91-.92-31.5-1-32.34a4.19,4.19,0,0,1,2.8-4.15,4.31,4.31,0,0,1,5.88,3.89c.14-1.37.89,25.14,1,29.29l12.82-4.93a4.32,4.32,0,0,1,5.56,2.47,4.2,4.2,0,0,1-2.47,5.56l-15.69,6c.25,4.07.38,14.13.91,34.35.69,25.21,1.59,35,3.73,40.52,2,5.16,5.38,7.15,9.21,5.68,13.77-5.3,16.85-24.71,18.26-47.88a4.94,4.94,0,0,1,2.95-3.77,6,6,0,0,1,1.87-.28A4.59,4.59,0,0,1,426.31,137.34Z"/><path class="cls-1" d="M396.81,198.7a16.1,16.1,0,0,1-7.93-2.07c-4.1-2.29-7.34-6.31-9.39-11.62-3.19-8.29-4.53-28.43-4.45-44.71l-.66-26.77-8.09,3.11a7.23,7.23,0,0,1-9.44-4.19,7.32,7.32,0,0,1,4.2-9.44l12.78-4.92c-.16-6.7-.85-28.41-1-30v-.15a7.19,7.19,0,0,1,4.72-7.09,7.36,7.36,0,0,1,6.82.81,7.14,7.14,0,0,1,3.14,5.69c.06.4.08.78.1,1.09,0,.7.07,1.72.12,3,.09,2.44.19,5.73.3,9.15.13,4.21.25,8.68.33,12l8.84-3.4a7.19,7.19,0,0,1,5.68.19,7.39,7.39,0,0,1,3.76,4,7.22,7.22,0,0,1-4.2,9.44L388.79,108c.11,2.79.2,7,.34,13,.12,5,.26,11.36.47,19.23.67,24.44,1.56,34.41,3.53,39.52a7.59,7.59,0,0,0,2.67,3.84,2.78,2.78,0,0,0,2.66.12c11.55-4.44,14.89-21.31,16.35-45.26l0-.27a7.88,7.88,0,0,1,4.83-6.12,8.58,8.58,0,0,1,2.81-.47l.3,0,.29,0a7.59,7.59,0,0,1,6,4.64h0a8.74,8.74,0,0,1,.48,2.79v.36c-2.05,30.41-7.09,50.71-25.87,57.93A19.18,19.18,0,0,1,396.81,198.7Zm-16.65-93.82.87,35.37c-.08,18.38,1.62,36.26,4.06,42.6,1.54,4,3.86,7,6.71,8.54a11.08,11.08,0,0,0,9.75.36c15.78-6.06,20.14-24.61,22-52.57a5,5,0,0,0-.08-.76,1.55,1.55,0,0,0-1.11-.81,3.21,3.21,0,0,0-.58.06,2,2,0,0,0-1,1.33c-1.36,22.08-4.05,44.12-20.17,50.32a8.75,8.75,0,0,1-7.94-.59,13.17,13.17,0,0,1-5.15-6.82c-2.3-6-3.22-15.67-3.93-41.51-.2-7.88-.35-14.21-.47-19.25-.18-7.84-.29-12.57-.44-15l-.13-2.19,17.74-6.83a1.21,1.21,0,0,0,.75-1.68,1.35,1.35,0,0,0-.69-.72,1.28,1.28,0,0,0-1,0l-16.83,6.47-.06-4.3c-.07-4.46-.73-27.38-.9-28.95a3,3,0,0,0,3,2.57h0v-2.8l-3-.15a1.18,1.18,0,0,0-.53-.94,1.37,1.37,0,0,0-1.27-.15,1.22,1.22,0,0,0-.88,1.22h0c.12,2.86,1.17,31.16,1,32.76l-.17,1.84-16.47,6.34a1.32,1.32,0,0,0-.75,1.68,1.36,1.36,0,0,0,.67.77,1.34,1.34,0,0,0,1,0Z"/><path class="cls-1" d="M414.75,67.34a7.08,7.08,0,0,1,4.19-9.08,7,7,0,1,1,5,13A7.1,7.1,0,0,1,414.75,67.34Zm46.76,56.47a6,6,0,0,1,.28,1.87c-1.24,24.19-3.68,47.53-19.75,53.72-9.19,3.53-17-1.83-20-10.78-5.17-15.14-5.05-55.38-5-80.43a4.12,4.12,0,0,1,2.6-4.08c2.49-1,5.72,0,5.82,3.7,1.53,59.37,1.47,69.5,4.64,77.72,2.13,5.55,4.81,7.38,8.83,5.83,11.86-4.56,13.08-27.65,14.12-46.07a4.7,4.7,0,0,1,2.87-4,4.65,4.65,0,0,1,1.68-.21A4.21,4.21,0,0,1,461.51,123.81Z"/><path class="cls-1" d="M436.41,183.5a16.2,16.2,0,0,1-6.9-1.54c-4.69-2.21-8.34-6.61-10.27-12.38-5.26-15.41-5.21-54.53-5.18-80.42v-.91a7.12,7.12,0,0,1,4.53-6.94,7.54,7.54,0,0,1,6.89.62,7,7,0,0,1,3,5.8l.4,15.79c1.13,44.68,1.36,54,4,60.94,1,2.71,2,3.75,2.57,4.15.26.18.82.55,2.38-.05,10-3.83,11.25-26.48,12.19-43l0-.53a7.72,7.72,0,0,1,4.78-6.48,6.34,6.34,0,0,1,2.3-.39h.49a7.17,7.17,0,0,1,6.65,4.6h0a8.49,8.49,0,0,1,.47,2.8v.3c-1.31,25.82-4,49.56-21.67,56.37A18.75,18.75,0,0,1,436.41,183.5Zm-14.9-96.73a2.25,2.25,0,0,0-.77.14,1.13,1.13,0,0,0-.68,1.14v1.12c0,23.94-.08,64,4.86,78.49,1.42,4.22,3.95,7.36,7.15,8.87a11,11,0,0,0,8.89.07c14.3-5.5,16.66-28.16,17.82-50.93a4.56,4.56,0,0,0-.07-.79,1.24,1.24,0,0,0-1-.75H457a1.76,1.76,0,0,0-.88,1.39l0,.33c-1.09,19.19-2.44,43.07-16,48.29a8.21,8.21,0,0,1-7.86-.55c-2-1.32-3.51-3.54-4.84-7-3.05-7.92-3.26-16.32-4.44-62.94l-.4-15.78a1.28,1.28,0,0,0-.33-1A1.23,1.23,0,0,0,421.51,86.77Zm-.19-12a9.94,9.94,0,0,1-3.45-19.3A10,10,0,1,1,425,74.07,10.48,10.48,0,0,1,421.32,74.76Zm.16-14a4,4,0,0,0-1.46.28,4,4,0,1,0,2.85,7.41,4,4,0,0,0-1.39-7.69Z"/><path class="cls-1" d="M527.53,98.41a4.88,4.88,0,0,1,.21,1.68c1.31,16-5.45,34.38-18.84,39.53a20,20,0,0,1-15.38,0c-4.52,16.23-8.23,23.15-16.45,26.31-9.57,3.68-16.35-1.39-20-10.77-4.71-12.24-3.8-37.85-5.05-81.08a4.27,4.27,0,0,1,2.87-4A4.23,4.23,0,0,1,460.82,74c1,52.32,1.53,70.79,4.32,78.06,2.14,5.55,4.63,7.45,8.84,5.83,6.69-2.58,10.31-14.29,11.77-23.64-4.31-4.93-6.65-12.16-7.18-18.1a4.29,4.29,0,0,1,2.65-4.53,4.48,4.48,0,0,1,6,3.62c.21,1.67.49,3.54.81,5,.78-4.26,5.92-55.43,6.36-62.85a4.93,4.93,0,0,1,2.94-3.77,6,6,0,0,1,1.87-.28,4.94,4.94,0,0,1,3.77,3,6,6,0,0,1,.28,1.87c-1.36,15.89-6.62,65.58-8,72.91a12.9,12.9,0,0,0,10.73.48c10.14-3.9,14.23-19.53,13.1-31.61A3.77,3.77,0,0,1,521.78,96a6,6,0,0,1,1.87-.28A4.21,4.21,0,0,1,527.53,98.41Z"/><path class="cls-1" d="M471.1,170.12c-7.29,0-13.31-4.85-16.79-13.89-3.78-9.83-4.1-26.54-4.62-54.21-.16-8.25-.33-17.61-.63-27.86A7.38,7.38,0,0,1,463.82,74c1,49.62,1.46,70.05,4.12,77,2,5.24,3.32,4.74,5,4.11,4.07-1.57,7.82-9.35,9.67-20a36.55,36.55,0,0,1-7-18.69,7.27,7.27,0,0,1,10.74-7.2c1.77-16.33,4.73-46.24,5.07-52l0-.27a7.9,7.9,0,0,1,4.83-6.12,8.54,8.54,0,0,1,2.81-.47l.29,0,.3.05a7.9,7.9,0,0,1,6.12,4.83,8.58,8.58,0,0,1,.47,2.81v.39c-1.3,15.17-5.86,58.33-7.63,70.73a9.82,9.82,0,0,0,6.31-.39c8.36-3.21,12.26-17,11.2-28.46a6.68,6.68,0,0,1,4.58-7,8.58,8.58,0,0,1,2.81-.47h.17a7.18,7.18,0,0,1,6.65,4.61h0a6.58,6.58,0,0,1,.4,2.3v.28c1.31,16.24-5.51,36.64-20.75,42.5a23.62,23.62,0,0,1-14.44,1.05c-4.09,13.89-8.22,21.72-17.4,25.25A19.59,19.59,0,0,1,471.1,170.12ZM456.61,72.79a1.63,1.63,0,0,0-.6.12,1.33,1.33,0,0,0-.95,1.14c.3,10.22.47,19.59.63,27.85.49,26.09.82,43.33,4.22,52.17,2.33,6.06,7,12.54,16.08,9.05,6.76-2.59,10.18-8.28,14.64-24.32l.93-3.34,3.18,1.41a17.07,17.07,0,0,0,13.08-.05c12.09-4.65,18.1-22.2,16.93-36.48l0-.56c0-.12,0-.22,0-.33a1.25,1.25,0,0,0-1-.72,5.14,5.14,0,0,0-.86.09,1.43,1.43,0,0,0-.79.61l0,.19c1.27,13.53-3.56,30.29-15,34.69a15.82,15.82,0,0,1-13.13-.59l-2-1,.41-2.24c1.29-7,6.54-56.26,7.92-72.42a3.91,3.91,0,0,0-.07-.74,2,2,0,0,0-1.2-1,3.07,3.07,0,0,0-.57.06,2,2,0,0,0-1,1.33c-.49,7.7-5.53,58.33-6.39,63l-2.26,12.35.21.24-.22,1.38c-1,6.63-4.43,22.43-13.66,26-8.54,3.29-11.67-4.87-12.71-7.55-3-7.8-3.5-26.41-4.52-79.08a1.26,1.26,0,0,0-.53-1.07A1.22,1.22,0,0,0,456.61,72.79Zm26.19,41.53a1.4,1.4,0,0,0-.51.1,1.36,1.36,0,0,0-.73,1.5c.41,4.66,2.23,11.23,6.06,15.9l-2.51-10.95c-.38-1.66-.68-3.73-.86-5.21a1.66,1.66,0,0,0-.78-1.16A1.37,1.37,0,0,0,482.8,114.32Z"/><path class="cls-1" d="M588.24,75.29a4.82,4.82,0,0,1,.2,1.67c-1.84,32.34-11.52,50.56-30.85,58-15.88,6.11-29.49-.73-35.14-16.57-8.27-24.93-3.68-72.38,18.89-81.07,9.57-3.68,18.18-1.28,21.71,7.91,7.8,20.28-16,43.49-35.25,56.82a59.94,59.94,0,0,0,2.76,13.44c3.81,11,12.51,15.4,24.13,11.36,15.84-5.65,23.82-21.46,25-50.26a4.64,4.64,0,0,1,4.55-4.16A4.71,4.71,0,0,1,588.24,75.29ZM555,48.31c-2-5.17-6.38-4.58-10.59-3-13.2,5.08-16.64,29.25-17.1,46.33C541.3,80.6,560.46,62.47,555,48.31Z"/><path class="cls-1" d="M546.41,140.17a26.42,26.42,0,0,1-11.12-2.38c-7.12-3.27-12.54-9.63-15.67-18.4-4.4-13.27-5.25-31.71-2.24-48.17,3.53-19.35,11.66-32.39,22.89-36.71,11.58-4.45,21.62-.67,25.58,9.63,9.51,24.73-22.49,50.52-34.86,59.33a54.8,54.8,0,0,0,2.41,11.07c1.62,4.68,4.15,7.9,7.52,9.54s7.78,1.67,12.79-.07c9.14-3.26,21.5-11.75,23-47.56v-.16a7.63,7.63,0,0,1,7.48-6.87h.17l.17,0A7.72,7.72,0,0,1,591,74.21h0a6.29,6.29,0,0,1,.39,2.29l0,.48v.15c-1.91,33.49-12.32,52.76-32.77,60.62A34.25,34.25,0,0,1,546.41,140.17Zm3.18-101.51a20.75,20.75,0,0,0-7.17,1.45c-9.06,3.49-16,15.22-19.14,32.18-2.8,15.31-2,33,2,45.15,2.55,7.14,6.88,12.32,12.49,14.9,5.44,2.49,11.92,2.43,18.73-.19,18.2-7,27.12-24,28.92-55.21,0-.1,0-.2,0-.29s0-.22,0-.33a1.76,1.76,0,0,0-1.26-.89,1.66,1.66,0,0,0-1.44,1.38c-1.29,29.94-9.87,46.74-27,52.86-6.5,2.25-12.51,2.18-17.4-.19s-8.44-6.83-10.58-13a63.16,63.16,0,0,1-2.9-14.1l-.18-1.77,1.46-1c20.86-14.45,40.79-36,34.15-53.29C557.94,40.28,553.6,38.66,549.59,38.66ZM524.16,98l.17-6.43c.43-15.75,3.46-43.06,19-49,9.11-3.51,12.89.61,14.46,4.68h0c4.71,12.25-4.92,28-28.62,46.8ZM549.48,47.2a11.73,11.73,0,0,0-4,.95c-8,3.08-13.42,16.69-14.85,36.92,17.17-14.69,24.8-27.24,21.56-35.68C551.81,48.34,551.37,47.2,549.48,47.2Z"/><path class="cls-1" d="M212.18,366.06c3.38,41.32,9.41,94.12-24.26,107.08-15.69,6-31.68-.12-37.64-15.62-6.47-16.84.75-36.31,15.87-42.12,4-1.55,8.4-2.14,9.8,1.5a4.32,4.32,0,0,1-3.69,5.81,9.65,9.65,0,0,0-3.4.87c-10.53,4.05-15,19.37-10.69,30.47,4.49,11.67,16.13,15.1,26.85,11,25.64-9.86,22.31-51.63,18.51-98-1.53-19.4-3-37.5-1.58-50.35.77-8.86,6.47-19.18,12.4-21.46,1.91-.74,4.53-.21,5.46,1.63a4.41,4.41,0,0,1-1.61,6.11c-4.75,2.49-7,9.73-7.77,14.63C209.17,329.67,210.49,347.39,212.18,366.06Zm26.5,11.78a52.93,52.93,0,0,1-19.19,3.21,4.21,4.21,0,0,1-4.16-2.8,4,4,0,0,1,2.36-5.3,4.54,4.54,0,0,1,1.6-.4,50.74,50.74,0,0,0,16.87-3c22-8.46,27.71-37,19.47-58.44-8-20.86-28.14-25.2-50.53-16.59-32.9,12.66-40.42,48.5-26.88,83.7a4.31,4.31,0,0,1-8,3.09c-15.67-40.75-5.74-80.59,33.67-95.75,26-10,50.76-1.08,59.82,22.46C274.12,335.21,265.65,367.46,238.68,377.84Z"/><path class="cls-1" d="M176,478.45c-12.62,0-23.63-7.26-28.48-19.85a38.47,38.47,0,0,1-.17-27.33c3.3-8.79,9.77-15.6,17.76-18.67a17.36,17.36,0,0,1,7.15-1.39,7.09,7.09,0,0,1,6.53,4.61,7.22,7.22,0,0,1-.68,6.52,7.3,7.3,0,0,1-5.61,3.37h-.26a8.27,8.27,0,0,0-2.27.67c-8.43,3.25-12.87,16.42-9,26.59,4.17,10.83,14.83,12.39,23,9.26,23.63-9.09,20.22-50.83,16.6-95l-.08-1c-1.5-19-2.92-37-1.49-49.91A36.32,36.32,0,0,1,207.05,297l-.87.33c-14.72,5.66-24.77,16.53-29.06,31.43-4.06,14.11-2.68,31.3,3.9,48.39a7.32,7.32,0,0,1-4.2,9.44,7.19,7.19,0,0,1-5.68-.19,7.39,7.39,0,0,1-3.76-4c-8.2-21.31-9.54-41.87-3.88-59.47,6-18.71,19.6-32.59,39.28-40.16,13.32-5.13,26.95-5.61,38.39-1.37,11.64,4.33,20.62,13.4,25.3,25.55,5.4,14,6,29.8,1.59,43.2-4.74,14.45-14.79,25.27-28.31,30.47h0a55.25,55.25,0,0,1-20.11,3.41h-.1a7.28,7.28,0,0,1-2.92-.51c2.87,38.08,3.31,80.5-27.63,92.4A36.43,36.43,0,0,1,176,478.45Zm-4.42-61.26a12.39,12.39,0,0,0-4.31,1c-6.49,2.49-11.57,7.88-14.3,15.18a32.87,32.87,0,0,0,.15,23.06c5.22,13.57,19.42,19.41,33.76,13.9,30.07-11.57,26-59.72,22.82-98.41q-.24-2.83-.46-5.61c-1.62-17.83-3.09-36.31-1.75-49.09l0-.14c.46-3,2.48-13.1,9.17-16.75a1.4,1.4,0,0,0,.52-2.12,1.68,1.68,0,0,0-1.74-.25c-4.7,1.81-9.79,11-10.48,18.91-1.37,12.42,0,30.12,1.5,48.86l.08,1c3.8,46.48,7.4,90.39-20.43,101.09-13,5-26-.33-30.72-12.7-4.58-11.92-.16-29.51,12.41-34.35a12.53,12.53,0,0,1,4.34-1.07,1.27,1.27,0,0,0,.89-.6,1.23,1.23,0,0,0,.14-1.13c-.13-.35-.27-.71-1.31-.78Zm53.05-132.63a55,55,0,0,0-19.66,3.83c-35.61,13.69-48.15,49.76-32,91.87a1.35,1.35,0,0,0,.69.72,1.28,1.28,0,0,0,1,0,1.32,1.32,0,0,0,.75-1.68c-7-18.31-8.48-36.85-4.06-52.21,4.83-16.78,16.12-29,32.67-35.37,12-4.62,23.26-5.59,32.58-2.83,10.11,3,17.65,10.3,21.82,21.14a57.61,57.61,0,0,1,1.69,36c-3.68,12.72-11.81,22.07-22.88,26.33a53.5,53.5,0,0,1-17.87,3.17,2.5,2.5,0,0,0-.6.2,1,1,0,0,0-.64,1.42,1.25,1.25,0,0,0,1.22.88h.14a49,49,0,0,0,18.11-3c20.82-8,35.21-34.86,23.27-65.92-4.11-10.67-11.64-18.3-21.79-22.07A41.47,41.47,0,0,0,224.59,284.56Zm-11.18,33.36c-1.27,12.26.25,31.13,1.76,47.87v0c.12,1.59.26,3.2.39,4.82a9,9,0,0,1,1-.49,7.6,7.6,0,0,1,2.55-.59,47.82,47.82,0,0,0,15.92-2.78c9.28-3.57,16.13-11.52,19.28-22.39a51.55,51.55,0,0,0-1.53-32.18c-3.52-9.16-9.55-15.06-17.93-17.54a35.69,35.69,0,0,0-13.83-1.06,6.24,6.24,0,0,1,1.42,1.84,7.4,7.4,0,0,1-2.63,10l-.27.16C216.17,307.36,214.12,313.33,213.41,317.92Z"/><path class="cls-1" d="M279.18,302.08a7.09,7.09,0,0,1,4.19-9.08,7,7,0,1,1,5,13A7.08,7.08,0,0,1,279.18,302.08Zm46.76,56.47a6,6,0,0,1,.28,1.87c-1.24,24.2-3.68,47.54-19.75,53.72-9.19,3.53-17-1.82-20-10.77-5.17-15.14-5.05-55.38-5-80.43a4.11,4.11,0,0,1,2.6-4.08c2.49-1,5.71,0,5.82,3.69,1.53,59.38,1.47,69.5,4.64,77.73,2.13,5.55,4.81,7.37,8.83,5.83,11.86-4.57,13.08-27.66,14.12-46.07a4.72,4.72,0,0,1,2.87-4,4.65,4.65,0,0,1,1.68-.2A4.2,4.2,0,0,1,325.94,358.55Z"/><path class="cls-1" d="M300.84,418.24a16.08,16.08,0,0,1-6.9-1.54c-4.69-2.2-8.34-6.6-10.27-12.38-5.26-15.4-5.21-54.52-5.18-80.41V323a7.12,7.12,0,0,1,4.53-6.93,7.57,7.57,0,0,1,6.89.61,7,7,0,0,1,3,5.8l.4,15.79c1.13,44.69,1.36,54,4,60.94,1,2.72,2,3.76,2.57,4.15.26.19.83.55,2.38,0,10-3.84,11.25-26.49,12.19-43l0-.53a7.71,7.71,0,0,1,4.78-6.47,6.31,6.31,0,0,1,2.3-.39H322a7.19,7.19,0,0,1,6.71,4.6h0a8.43,8.43,0,0,1,.47,2.79v.31c-1.32,25.81-4,49.55-21.67,56.36A18.57,18.57,0,0,1,300.84,418.24Zm-14.9-96.73a2.28,2.28,0,0,0-.77.15,1.12,1.12,0,0,0-.68,1.14v1.12c0,23.94-.08,64,4.86,78.48,1.42,4.22,3.95,7.37,7.15,8.87a10.94,10.94,0,0,0,8.89.07c14.3-5.5,16.66-28.15,17.82-50.92a4.46,4.46,0,0,0-.07-.79,1.22,1.22,0,0,0-1-.75h-.37a2.1,2.1,0,0,0-.36,0,1.74,1.74,0,0,0-.88,1.38l0,.34c-1.09,19.19-2.44,43.06-16,48.29a8.21,8.21,0,0,1-7.86-.56c-2-1.31-3.51-3.54-4.84-7-3.05-7.92-3.26-16.32-4.44-62.94l-.4-15.79c0-.34-.08-.8-.33-1A1.14,1.14,0,0,0,285.94,321.51Zm-.19-12a10,10,0,0,1-9.37-6.34h0a10.08,10.08,0,0,1,5.92-13,10,10,0,0,1,7.15,18.61A10.26,10.26,0,0,1,285.75,309.5ZM282,301a4.08,4.08,0,0,0,5.32,2.2,4,4,0,1,0-2.85-7.41A4.08,4.08,0,0,0,282,301Z"/><path class="cls-1" d="M386.67,335.41a4.88,4.88,0,0,1,.21,1.68c-1.67,30.51-10,50-32.19,58.51-14,5.37-27.2-1.62-33.23-17.31-11.49-29.85-.82-73.49,18.7-81,10.91-4.2,19.13,1.2,23.18,11.73,3.31,8.6,2.49,19-1.91,20.72-2.49.95-4.54.2-5.49-2.28-1-2.68,2.31-7.7-.64-15.35-2.57-6.7-6.31-9-12.05-6.79-14.92,5.74-22.52,47.1-13.69,70.06,4.13,10.71,13.05,15.63,22.23,12.1,18.56-7.14,25.27-25.1,26.37-50.78a4.66,4.66,0,0,1,4.55-4.17A4.72,4.72,0,0,1,386.67,335.41Z"/><path class="cls-1" d="M345.4,400.4c-11.49,0-21.58-7.61-26.74-21-5.57-14.47-6.46-33.4-2.4-50.64,4.14-17.53,12.67-30.33,22.82-34.23,6-2.33,11.81-2.15,16.68.51,4.47,2.44,8.06,6.91,10.38,12.94,3.68,9.56,3.09,22-3.63,24.6-4.08,1.57-7.85,0-9.37-4-.68-1.76-.37-3.59,0-5.54a17,17,0,0,0-.59-9.81c-1-2.7-2.23-4.45-3.54-5.21-.73-.42-2-.86-4.64.15-12.1,4.65-20.87,43-12,66.18,3.55,9.23,10.75,13.3,18.35,10.38,15.74-6.06,23.29-20.89,24.46-48.11v-.16a7.62,7.62,0,0,1,7.48-6.87h.17l.17,0a7.71,7.71,0,0,1,6.47,4.78h0a6.34,6.34,0,0,1,.39,2.3l0,.47v.15c-1.87,34.38-12.07,52.66-34.1,61.14A28.92,28.92,0,0,1,345.4,400.4Zm1.87-101.53a16.77,16.77,0,0,0-6,1.23c-8.18,3.14-15.52,14.64-19.14,30-3.8,16.12-3,33.73,2.16,47.11,5.47,14.22,17,20.34,29.35,15.59,19.47-7.49,28.52-24.17,30.26-55.75v-.27a1.79,1.79,0,0,0,0-.33,1.75,1.75,0,0,0-1.25-.9,1.65,1.65,0,0,0-1.44,1.39c-1.31,29.87-10,46.32-28.29,53.35-10.66,4.1-21.4-1.58-26.11-13.82-4.37-11.37-5.19-27.49-2.21-43.13,4.47-23.41,13.82-29.34,17.62-30.81s7-1.34,9.79.25c2.57,1.48,4.58,4.18,6.14,8.26A22.73,22.73,0,0,1,359,324a11.94,11.94,0,0,0-.26,2.43c.24.63.39,1,1.6.53,1.73-.67,3.44-8.41.19-16.85-1.8-4.68-4.45-8.08-7.65-9.83A11.65,11.65,0,0,0,347.27,298.87Z"/><path class="cls-1" d="M462.93,305.86a5.8,5.8,0,0,1,.27,1.87c-1.89,33.9-6.54,48.65-19.55,53.65-9.19,3.53-16.36-1.4-20-10.77-6.92-18-.53-45.92-6.93-62.57-2.14-5.55-6.32-9-13.78-6.12-11.67,4.49-16.28,35.91-16.15,54.53l1.18,43a4.45,4.45,0,0,1-4.13,4.67,4.27,4.27,0,0,1-4.48-4.21c-.64-31.38-1.91-70.64-2.32-94a4.18,4.18,0,0,1,2.79-4.15,4.31,4.31,0,0,1,5.89,3.89l-.06,4.41c3.34-7.87,7.87-13.79,14.19-16.22,13.77-5.29,21,.93,24.9,11.07,6.55,17,1.27,47.83,6.93,62.57,2.14,5.55,4.82,7.37,8.83,5.82,9-3.45,12-16.24,13.94-46a4.42,4.42,0,0,1,2.68-3.88,5.72,5.72,0,0,1,1.87-.28A4.42,4.42,0,0,1,462.93,305.86Z"/><path class="cls-1" d="M383.78,387.15a7.27,7.27,0,0,1-7.37-7.07c-.32-15.42-.78-32.49-1.23-49-.46-17-.89-33.14-1.1-45.07a7.16,7.16,0,0,1,4.71-7,7.39,7.39,0,0,1,6.83.81,7.15,7.15,0,0,1,1.44,1.3c3.28-5,7.17-8.26,11.75-10,7.29-2.8,13.57-2.83,18.65-.09,4.33,2.32,7.74,6.66,10.13,12.88,3.58,9.32,3.81,22.09,4,34.44.19,11.07.37,21.53,2.91,28.13,2,5.24,3.52,4.66,5,4.11,7-2.71,10.06-13.66,12-43.4a7.39,7.39,0,0,1,4.59-6.48,8.4,8.4,0,0,1,2.81-.48h.22l.21,0a7.36,7.36,0,0,1,6.39,4.59h0a8.32,8.32,0,0,1,.48,2.81v.3c-1.78,31.83-5.73,50.22-21.48,56.28-5.25,2-10.31,1.76-14.65-.75-3.92-2.27-7.1-6.33-9.18-11.75-3.72-9.67-3.8-21.78-3.87-33.5-.06-11-.12-21.41-3.06-29.06-1.93-5-4.9-6.33-9.9-4.4-8.58,3.3-14.38,29.9-14.23,51.71l1.18,43a7.42,7.42,0,0,1-6.83,7.73l-.25,0Zm-2.33-102.64a1.36,1.36,0,0,0-.5.09,1.21,1.21,0,0,0-.88,1.22c.22,12,.65,28.07,1.11,45.1.44,16.51.91,33.59,1.22,49a1.24,1.24,0,0,0,1.3,1.27,1.48,1.48,0,0,0,1.32-1.53l-1.18-43.09a146.19,146.19,0,0,1,3.72-33.35c3.28-13.56,8.1-21.66,14.34-24.06,8.11-3.12,14.54-.26,17.65,7.84,3.34,8.68,3.41,19.61,3.47,31.19.07,11.17.14,22.73,3.47,31.38,1.58,4.12,3.86,7.13,6.59,8.71s5.94,1.71,9.49.34c11.14-4.28,15.76-17.6,17.63-50.86a4.24,4.24,0,0,0-.08-.78,1.51,1.51,0,0,0-1.2-.75,3.94,3.94,0,0,0-.68.08c-.61.23-.74,1.11-.76,1.37-1.94,29.45-4.81,44.26-15.85,48.5-7.06,2.72-10.8-2.6-12.71-7.55C426,341,425.81,330,425.61,318.41c-.2-11.82-.42-24.05-3.62-32.38-1.86-4.85-4.34-8.13-7.37-9.76-3.48-1.87-8.07-1.73-13.65.41-5.08,2-9.17,6.73-12.51,14.6l-6,14.05.26-19.68a1.17,1.17,0,0,0-.54-.9A1.4,1.4,0,0,0,381.45,284.51Z"/><path class="cls-1" d="M451.37,235.85a7.09,7.09,0,0,1,4.19-9.08,7,7,0,0,1,5,13A7.08,7.08,0,0,1,451.37,235.85Zm46.76,56.48a6,6,0,0,1,.28,1.86c-1.24,24.2-3.68,47.54-19.75,53.73-9.18,3.53-17-1.83-20-10.78-5.16-15.14-5.05-55.38-5-80.43a4.12,4.12,0,0,1,2.61-4.08c2.48-.95,5.71,0,5.81,3.7,1.53,59.37,1.47,69.49,4.64,77.72,2.13,5.55,4.81,7.37,8.83,5.83,11.86-4.56,13.08-27.66,14.13-46.07a4.71,4.71,0,0,1,2.87-4,4.82,4.82,0,0,1,1.67-.2A4.2,4.2,0,0,1,498.13,292.33Z"/><path class="cls-1" d="M473,352a16,16,0,0,1-6.89-1.55c-4.69-2.2-8.34-6.6-10.28-12.37-5.26-15.41-5.21-54.53-5.18-80.42v-.91a7.14,7.14,0,0,1,4.53-6.94,7.54,7.54,0,0,1,6.89.62,6.92,6.92,0,0,1,3,5.79l.4,15.8c1.13,44.68,1.36,54,4,60.93,2,5.24,3.51,4.66,4.95,4.11,10-3.83,11.25-26.49,12.19-43l0-.53a7.71,7.71,0,0,1,4.78-6.47,6.34,6.34,0,0,1,2.3-.39h.49a7.17,7.17,0,0,1,6.65,4.6h0a8.8,8.8,0,0,1,.48,2.8v.3c-1.32,25.82-4,49.56-21.67,56.36A18.64,18.64,0,0,1,473,352Zm-14.9-96.74a2.28,2.28,0,0,0-.77.15,1.13,1.13,0,0,0-.68,1.14v1.12c0,23.94-.08,64,4.86,78.48,1.42,4.23,4,7.37,7.15,8.88a11,11,0,0,0,8.89.07c14.3-5.5,16.66-28.16,17.83-50.93a5.54,5.54,0,0,0-.08-.79,1.22,1.22,0,0,0-1-.75h-.72a1.76,1.76,0,0,0-.88,1.38l0,.34c-1.09,19.19-2.44,43.07-16,48.29-7.06,2.72-10.81-2.61-12.71-7.55-3.05-7.92-3.26-16.32-4.44-62.94l-.4-15.79c0-.34-.07-.79-.33-1A1.12,1.12,0,0,0,458.13,255.28Zm-.19-12a10,10,0,0,1-9.37-6.34,10.09,10.09,0,0,1,5.92-13,10,10,0,0,1,7.16,18.61A10.32,10.32,0,0,1,457.94,243.27Zm.16-14a4.23,4.23,0,0,0-1.46.27,4,4,0,1,0,2.85,7.41,4,4,0,0,0-1.39-7.68Z"/><path class="cls-1" d="M558.87,269.18a4.88,4.88,0,0,1,.21,1.68c-1.67,30.51-10,50-32.19,58.5-14,5.38-27.2-1.61-33.23-17.3-11.48-29.85-.82-73.49,18.7-81,10.91-4.19,19.13,1.21,23.18,11.73,3.31,8.61,2.49,19-1.91,20.73-2.49,1-4.54.2-5.49-2.28-1-2.68,2.31-7.7-.63-15.36-2.58-6.69-6.32-9-12.06-6.78-14.92,5.74-22.52,47.1-13.69,70.06,4.13,10.71,13,15.63,22.23,12.1,18.56-7.14,25.27-25.1,26.37-50.78a4.66,4.66,0,0,1,4.55-4.17A4.72,4.72,0,0,1,558.87,269.18Z"/><path class="cls-1" d="M517.6,334.17c-11.49,0-21.58-7.62-26.74-21-5.57-14.46-6.46-33.39-2.4-50.64,4.14-17.52,12.67-30.32,22.82-34.23,6-2.32,11.81-2.14,16.68.52,4.47,2.44,8.06,6.91,10.38,12.94A33.26,33.26,0,0,1,540.47,256c-.48,5.4-2.53,9.06-5.76,10.31a7.5,7.5,0,0,1-5.52.13,6.88,6.88,0,0,1-3.85-4.14c-.68-1.76-.37-3.6,0-5.54a17,17,0,0,0-.59-9.81c-1-2.7-2.23-4.45-3.54-5.21-.73-.42-2-.86-4.64.15-5.81,2.23-11.25,12.57-13.88,26.33-2.75,14.37-2,29.64,1.91,39.85,1.77,4.59,4.49,8,7.86,9.84a12.2,12.2,0,0,0,10.49.54c15.74-6.06,23.29-20.9,24.46-48.11v-.16a7.63,7.63,0,0,1,7.47-6.88H555l.17,0a7.71,7.71,0,0,1,6.47,4.78h0a6.31,6.31,0,0,1,.39,2.3l0,.46V271C560.2,305.4,550,323.69,528,332.16A28.73,28.73,0,0,1,517.6,334.17Zm1.87-101.53a17,17,0,0,0-6,1.22c-8.18,3.15-15.51,14.65-19.14,30-3.79,16.12-3,33.73,2.16,47.11,5.47,14.22,17,20.34,29.35,15.58,19.47-7.48,28.52-24.16,30.26-55.74v-.27a1.79,1.79,0,0,0,0-.33,1.72,1.72,0,0,0-1.25-.9,1.65,1.65,0,0,0-1.44,1.39c-1.31,29.87-10,46.32-28.29,53.34a18.24,18.24,0,0,1-15.53-.87c-4.63-2.53-8.29-7-10.57-12.95-4.38-11.36-5.2-27.48-2.22-43.12,4.47-23.41,13.82-29.34,17.62-30.81s7-1.34,9.79.25c2.57,1.48,4.58,4.18,6.14,8.26a22.73,22.73,0,0,1,.91,12.95,11.94,11.94,0,0,0-.26,2.43c.17.43.36.65.48.69a1.76,1.76,0,0,0,1.12-.16c.59-.23,1.64-1.85,1.94-5.23a27.51,27.51,0,0,0-1.75-11.62c-1.8-4.68-4.45-8.08-7.65-9.83A11.65,11.65,0,0,0,519.47,232.64Z"/></svg>