<svg id="Layer_1" data-name="Layer 1" xmlns="http://www.w3.org/2000/svg" viewBox="0 0 3000 3000"><defs><style>.cls-1{fill:#fff;stroke:#fff;stroke-width:5px;}</style></defs><title>Artboard 1</title><path class="cls-1" d="M1104.51,1848.68c-70.85-1-135.08-28.34-197.42-58.57-70.84-34-137-73.67-197.41-124.68-30.23-24.56-58.57-52.9-87.85-79.34-12.28-11.34-24.56-21.73-40.62-36.84-.94,22.67-2.83,40.61-3.77,58.56-3.78,52-8.51,103.9-20.78,154.91-5.67,23.62-13.23,47.23-23.62,69-16.06,34.95-42.51,57.62-80.29,56.68-24.56,0-42.5-16.06-62.34-28.34-9.44-5.67-18-15.11-27.39-20.78-11.34-6.61-16.06-16.06-19.84-28.34-9.44-30.22-20.78-60.45-28.33-90.68a516.86,516.86,0,0,1-14.17-74.62c-4.73-35.89-9.45-71.78-12.28-107.68-1.89-23.61,0-48.17,0-71.78,0-20.79-.95-42.51,0-63.29,4.72-81.23,14.17-161.52,39.67-239.92,31.17-94.46,70.84-183.25,133.18-258.81,65.18-78.4,144.52-131.3,240.87-147.35,41.56-6.62,83.12-1.89,121.85,17,38.73,17.94,55.73,62.34,53.84,110.51-1.89,49.12-17.95,95.4-37.78,139.8-34.95,81.23-79.35,155.85-128.46,227.64-36.84,53.84-77.46,105.79-117.13,156.8-17,21.72-10.39,44.39-11.34,67.06,0,3.78,4.73,7.56,8.51,9.45,61.39,40.61,109.56,98.23,167.18,144.52,38.73,31.17,79.35,58.56,120,86,24.56,16.06,51,30.23,76.51,45.34,48.18,26.45,99.18,44.4,151.13,57.62,21.73,5.67,43.45,6.61,65.18,9.45v5.66C1150.79,1846.79,1127.17,1848.68,1104.51,1848.68ZM466.92,1019.34c-2.83,5.67-6.61,11.34-9.44,17.95-26.45,52.9-47.23,107.68-64.24,165.3-25.5,83.12-35.89,168.13-36.83,254.09-1,103,11.33,204,40.61,301.32,7.56,28.34,21.73,52.89,39.68,74.62,16.05-14.17,22.66-32.12,28.33-49.12,13.23-38.73,18-77.45,20.78-118.07q7.08-85,14.17-170c0-10.39-1.89-16.06-8.5-22.67-9.45-8.5-18-18.89-21.72-33.06,5.66-7.56,11.33-14.17,17-20.78,10.39-11.34,16.06-24.56,15.11-41.56-3.78-45.34-4.72-90.68-8.5-136-2.84-39.67-6.61-80.29-11.34-120-2.83-34-6.61-68-10.39-101.07A8.45,8.45,0,0,0,466.92,1019.34Zm154.91,232.37,8.5-8.5c3.78-7.56,8.5-14.17,13.22-21.73,21.73-22.67,43.46-76.51,40.62-74.62,10.39-19.83,20.78-39.67,31.17-58.56,27.4-48.17,52.9-96.35,69-150.19,8.5-28.33,16.05-57.62,14.17-87.84-1.9-35.89-17-54.79-50.07-55.73-19.83,0-41.56,1.89-61.39,7.55C625.61,820,576.49,861.6,534.93,913.55c-12.28,14.17-19.84,27.4-7.56,44.4,1.89,3.78,1.89,9.44,2.84,14.17,5.67,35.89,12.28,72.73,17.94,109.57l17,119c3.77,25.51,5.66,51,9.44,76.51,1.89,8.5-.94,19.84,11.34,22.67,9.44-3.78,15.11-11.33,17-21.72C604.83,1272.49,607.66,1265.88,621.83,1251.71Z"/><path class="cls-1" d="M1023.26,1351.83c0,8.51-1.89,17-1.89,25.51,1.89,58.56-20.78,109.57-36.84,161.52-7.56,23.61-21.73,44.39-34,64.23-18.89,31.17-67.06,48.17-117.12,28.34-3.78-1.89-7.56-3.78-12.28-6.62-50.06-37.78-82.18-83.12-74.62-141.68,1.89-29.28,4.72-58.56,10.39-87.85,4.72-34,9.44-67.06,16.05-100.12,3.78-29.28,20.79-52,36.84-73.68,5.67-7.55,16.06-12.28,23.62-17.94,1.89-1,5.66-1.89,8.5-1,28.34,5.67,57.62,9.45,86,17,16.06,4.73,34,13.23,50.07,21.73,25.5,15.11,40.61,36.84,46.28,65.17C1025.15,1321.61,1023.26,1336.72,1023.26,1351.83ZM846.62,1584.2c6.61-8.5,14.17-15.11,19.84-24.56,34-52.9,55.73-112.41,68.95-175.69,2.84-10.39,2.84-20.78,8.5-29.28,12.28-22.67,3.78-49.12,1-74.62-3.78-18-18.9-28.34-35.9-23.62-14.17,4.72-28.33,12.28-41.56,18,12.28,23.61,12.28,23.61,3.78,42.5a86.82,86.82,0,0,1-6.61,13.23c-16.06,40.61-18.89,86-27.39,129.4-5.67,31.18-4.73,64.23-1.89,98.24.94,7.56,3.77,16.06,4.72,23.61C841,1582.31,842.84,1583.25,846.62,1584.2Zm99.18-178.53a17.59,17.59,0,0,1,1.89-6.61c0-.94-.94-.94-1.89-1.89-.94,2.84-2.83,4.73-3.78,6.61A7.16,7.16,0,0,0,945.8,1405.67Z"/><path class="cls-1" d="M960,1575.7c13.23-18,27.39-40.62,49.12-54.79,33.06-20.78,66.12-41.56,98.23-63.28a84.77,84.77,0,0,0,9.45-8.51c-9.45-20.78-18.89-40.61-26.45-60.45-6.61-18.89-11.33-38.73-15.11-58.56-4.72-17.95-1-34.95,9.44-51,25.51-37.78,57.62-67.06,103-77.45a255.09,255.09,0,0,1,59.51-6.62c16.06-.94,27.39,10.39,36.84,21.73,2.83,3.78,2.83,11.33.94,16.06-2.83,4.72-7.55,10.39-13.22,13.22-18,9.45-35.9,17-52.9,25.51-17,7.55-33.06,13.22-49.11,22.66-24.56,14.17-36.84,46.29-28.34,73.68,5.67,18.89,10.39,37.78,22.67,55.73,11.33-4.72,20.78-8.5,31.17-12.28,11.33-1.89,24.56,1.89,12.28,20.78-5.67,11.34-12.28,21.73-19.84,35,3.78,5.67,7.56,14.17,11.34,21.73,27.39,49.11,23.61,72.73-17,109.56-28.33,25.51-58.56,49.12-94.45,62.35-21.73,8.5-45.34,16-69,19.83-33.06,6.61-52.89-4.72-69-34-3.78-6.61-3.78-13.22-5.67-26.45C946.73,1602.14,949.56,1593.64,960,1575.7Zm61.4,33.06c35.89-7.56,111.46-69.9,118.07-99.18C1096,1536,1051.57,1561.53,1021.35,1608.76Z"/><path class="cls-1" d="M1441.66,1228.09c17-16,36.84-13.22,56.67-10.38,16.06,1.88,32.12,6.61,48.18,6.61,25.5.94,53.84,34,44.39,64.23-8.5,26.45-20.78,50.06-38.73,70.84a460.75,460.75,0,0,1-106.73,88.79c-10.39,5.67-20.78,11.33-32.12,15.11-22.67,8.5-34,14.17-57.62-4.72-13.22,33.06-18.89,64.23-10.39,97.29,3.78,17,13.23,9.45,23.62,9.45,27.39-1,47.23-7.56,70.84-17,44.39-17,86-41.56,126.57-66.12,34-20.78,64.23-52,98.24-74.62,6.61,6.61,8.5,22.67,9.44,30.23,1.89,9.44,0,14.17-3.77,20.78-25.51,48.17-69,77.45-110.52,106.74-39.67,27.39-82.18,48.17-130.35,57.61-36.84,7.56-72.73,5.67-105.79-11.33-9.45-4.72-17.95-10.39-23.62-17.95-23.61-33.06-47.22-67.06-39.67-114.29,1.89,6.61,1.89,10.39,3.78,18,4.72-45.34,18-84.07,39.67-120,25.51-41.56,58.57-76.51,97.29-106.74,15.12-11.33,30.23-23.61,46.29-36.84Zm-69,178.53c8.5-4.72,5.66-2.84,11.33-6.61,25.5-17,45.34-39.67,69-57.62a351.21,351.21,0,0,0,49.12-43.45c10.39-11.34,16.06-18.89,14.17-22.67C1496.45,1270.6,1370.82,1385.84,1372.71,1406.62Z"/><path class="cls-1" d="M2048.06,966.45c26.45-52.9,52.9-106.74,86.9-156.8,21.72-32.11,46.28-63.29,75.56-89.73,19.84-18.89,42.51-31.17,70.85-30.23,20.78.94,41.56-3.78,62.34,1.89,21.72,6.61,50.06,26.45,43.45,57.62s-12.28,64.23-22.67,94.46c-31.17,91.62-73.68,178.52-130.35,259.75-2.83,3.78-4.72,6.61-7.56,10.39-17.95,26.45-36.84,26.45-62.34,15.12-6.61-3.78-12.28-8.51-17.95-13.23-13.22-11.33-13.22-11.33-3.77-33.06a115.14,115.14,0,0,1,9.44,13.23c.95-.95,3.78-1.89,4.72-3.78,21.73-34,44.4-68,64.24-103,18.89-34,36.83-69.9,52.89-105.79,11.34-25.51,18-52.9,28.34-79.35,7.55-20.78,10.39-41.56,10.39-66.12-5.67,2.84-10.39,4.73-14.17,6.62-35.89,22.67-63.29,53.84-85,88.79-18,28.33-35,56.67-51,86-32.11,57.62-54.78,118.07-78.4,178.52-15.11,39.68-30.22,79.35-44.39,119-12.28,36.84-24.56,73.68-35.9,110.52-14.16,49.11-29.28,99.17-40.61,149.24-11.34,49.11-19.84,99.18-30.23,148.29-4.72,28.34-10.39,56.68-15.11,85-2.84,22.67-3.78,44.4-4.73,66.12-1.88,18.9-.94,37.79-1.88,55.73-2.84,44.4,4.72,86,18.89,126.58,6.61,18.89,17,35.89,33.06,49.11,10.39,7.56,19.83,7.56,31.17,0,33.06-21.72,57.62-51,80.29-82.17,50.06-68,86.9-141.69,123.74-216.31,13.22-28.34,25.5-55.73,39.67-83.12,4.72-10.39,9.44-19.84,24.56-20.78,9.44-2.84,11.33-2.84,14.16,2.83,1.89,8.5,5.67,13.23,4.73,18.89-.95,18.89-1.89,37.79-6.62,55.73-8.5,35-17.94,70.85-31.17,105.79-25.5,69-61.39,134.13-109.57,192.7-27.39,33.06-59.5,60.45-103,68-49.12,7.56-94.46,5.67-135.08-24.55-31.17-23.62-52-50.07-58.56-88.79-1.89-13.23-4.72-26.45-4.72-39.68-1.89-34.94-1.89-69-2.84-103.9,0-6.61,3.78-14.17,4.73-21.72q1.41-19.85,2.83-39.67c1.89-15.12,2.83-31.17,5.67-46.29q18.42-83.6,36.83-167.19c9.45-39.67,17-80.29,27.4-120,10.39-37.78,22.67-76.51,35-114.29,15.11-47.23,31.17-93.51,47.23-140.74,10.39-27.39,18.89-55.73,34-82.18,6.61-11.33,8.5-25.5,13.22-38.73,2.84-7.55,7.56-14.16,10.39-20.78,1.89-11.33,38.73-78.4,24.56-65.17-5.67,11.33-12.28,21.72-17.94,33.06-1.89,11.33-12.28,31.17-18,30.23C2039.56,988.17,2042.39,976.84,2048.06,966.45Z"/><path class="cls-1" d="M2587.4,1351.83c0,8.51-1.89,17-1.89,25.51,1.89,58.56-20.78,109.57-36.84,161.52-7.55,23.61-21.72,44.39-34,64.23-18.89,31.17-67.07,48.17-117.13,28.34-3.78-1.89-7.56-3.78-12.28-6.62-50.06-37.78-82.18-83.12-74.62-141.68,1.89-29.28,4.72-58.56,10.39-87.85,4.72-34,9.45-67.06,16.06-100.12,3.78-29.28,20.78-52,36.84-73.68,5.66-7.55,16.05-12.28,23.61-17.94,1.89-1,5.67-1.89,8.5-1,28.34,5.67,57.62,9.45,86,17,16.06,4.73,34,13.23,50.06,21.73,25.5,15.11,40.62,36.84,46.28,65.17C2589.29,1321.61,2587.4,1336.72,2587.4,1351.83ZM2410.77,1584.2c6.61-8.5,14.16-15.11,19.83-24.56,34-52.9,55.73-112.41,69-175.69,2.84-10.39,2.84-20.78,8.51-29.28,12.27-22.67,3.77-49.12.94-74.62-3.78-18-18.89-28.34-35.89-23.62-14.17,4.72-28.34,12.28-41.57,18,12.29,23.61,12.29,23.61,3.78,42.5a85.91,85.91,0,0,1-6.61,13.23c-16.06,40.61-18.89,86-27.39,129.4-5.67,31.18-4.72,64.23-1.89,98.24.94,7.56,3.78,16.06,4.72,23.61C2405.1,1582.31,2407,1583.25,2410.77,1584.2Zm99.17-178.53a17.59,17.59,0,0,1,1.89-6.61c0-.94-.94-.94-1.89-1.89-.94,2.84-2.83,4.73-3.77,6.61A7.1,7.1,0,0,0,2509.94,1405.67Z"/></svg>